# xmcd
#
# Track frame offsets:
#	150
#	7170
#	21595
#	38742
#	44049
#	58752
#	75458
#	94089
#	112099
#	127422
#	132417
#	147902
#	171196
#	186197
#	194183
#	209349
#
# Disc length: 3084 seconds
#
# Revision: 1
# Processed by: cddbd v1.5.2PL0 Copyright (c) Steve Scherf et al.
# Submitted via: CDex 1.51
#
DISCID=000c0a10
DTITLE=Frequency Benders, (The) - Tuning In
DYEAR=2000
DGENRE=Rock
TTITLE0=Intro (Tuning In)
TTITLE1=Opportunities
TTITLE2=Bring the Vibe
TTITLE3=Interlude (Hit It)
TTITLE4=The Relics of A Man
TTITLE5=Never Felt This Good Before
TTITLE6=Never Let Your Guard Down
TTITLE7=I Don't Need Somebody Like You
TTITLE8=What Matters Joy
TTITLE9=Interlude 2
TTITLE10=Everything in Common
TTITLE11=Can't Get You Out of My Mind
TTITLE12=Easy
TTITLE13=Outro (Tuning Out)
TTITLE14=Come Alive
TTITLE15=Rise to the Occation
EXTD=YEAR: 2000
EXTT0=
EXTT1=
EXTT2=
EXTT3=
EXTT4=
EXTT5=
EXTT6=
EXTT7=
EXTT8=
EXTT9=
EXTT10=
EXTT11=
EXTT12=
EXTT13=
EXTT14=
EXTT15=
PLAYORDER=
